HIERARCHY
ROOT Hips
{
	OFFSET 0.000000 89.005402 0.000000
	CHANNELS 6 Xposition Yposition Zposition Xrotation Yrotation Zrotation
	JOINT Spine
	{
		OFFSET 0.116900 10.681000 0.373400
		CHANNELS 3 Xrotation Yrotation Zrotation
		JOINT Spine1
		{
			OFFSET 0.000000 13.840401 0.053500
			CHANNELS 3 Xrotation Yrotation Zrotation
			JOINT Spine2
			{
				OFFSET 0.000000 14.712700 -0.366200
				CHANNELS 3 Xrotation Yrotation Zrotation
				JOINT Neck
				{
					OFFSET 0.000000 35.415497 -3.314200
					CHANNELS 3 Xrotation Yrotation Zrotation
					JOINT Head
					{
						OFFSET 0.000000 16.899200 1.218300
						CHANNELS 3 Xrotation Yrotation Zrotation
						JOINT HeadTop_End
						{
							OFFSET 0.000000 22.206207 2.192500
							CHANNELS 3 Xrotation Yrotation Zrotation
							End Site
							{
								OFFSET 0.000000 22.314178 0.000000
							}
						}
					}
				}
				JOINT LeftShoulder
				{
					OFFSET 12.896400 26.716293 -4.548400
					CHANNELS 3 Xrotation Yrotation Zrotation
					JOINT LeftArm
					{
						OFFSET 19.027000 -4.857010 -1.718400
						CHANNELS 3 Xrotation Yrotation Zrotation
						JOINT LeftForeArm
						{
							OFFSET 24.179897 0.000000 0.000000
							CHANNELS 3 Xrotation Yrotation Zrotation
							JOINT LeftHand
							{
								OFFSET 27.156403 0.000000 0.000000
								CHANNELS 3 Xrotation Yrotation Zrotation
								JOINT LeftHandIndex1
								{
									OFFSET 16.441200 0.000000 0.000000
									CHANNELS 3 Xrotation Yrotation Zrotation
									JOINT LeftHandIndex2
									{
										OFFSET 4.821899 0.000000 0.000000
										CHANNELS 3 Xrotation Yrotation Zrotation
										JOINT LeftHandIndex3
										{
											OFFSET 6.386497 0.000000 0.000000
											CHANNELS 3 Xrotation Yrotation Zrotation
											JOINT LeftHandIndex4
											{
												OFFSET 5.188988 0.000000 0.000000
												CHANNELS 3 Xrotation Yrotation Zrotation
												End Site
												{
													OFFSET -0.178703 5.185913 0.000177
												}
											}
										}
									}
								}
								JOINT LeftHandThumb1
								{
									OFFSET 6.534897 -5.032593 5.900300
									CHANNELS 3 Xrotation Yrotation Zrotation
									JOINT LeftHandThumb2
									{
										OFFSET 3.818176 -2.204422 2.204423
										CHANNELS 3 Xrotation Yrotation Zrotation
										JOINT LeftHandThumb3
										{
											OFFSET 3.252098 -1.877594 1.877601
											CHANNELS 3 Xrotation Yrotation Zrotation
											JOINT LeftHandThumb4
											{
												OFFSET 5.251778 -3.032120 3.032117
												CHANNELS 3 Xrotation Yrotation Zrotation
												End Site
												{
													OFFSET 0.000023 6.780014 0.000000
												}
											}
										}
									}
								}
							}
						}
					}
				}
				JOINT RightShoulder
				{
					OFFSET -12.896300 26.716293 -4.548400
					CHANNELS 3 Xrotation Yrotation Zrotation
					JOINT RightArm
					{
						OFFSET -19.027000 -4.857010 -1.718400
						CHANNELS 3 Xrotation Yrotation Zrotation
						JOINT RightForeArm
						{
							OFFSET -24.179897 0.000000 0.000000
							CHANNELS 3 Xrotation Yrotation Zrotation
							JOINT RightHand
							{
								OFFSET -27.156403 0.000000 0.000000
								CHANNELS 3 Xrotation Yrotation Zrotation
								JOINT RightHandThumb1
								{
									OFFSET -6.591202 -4.852203 5.988100
									CHANNELS 3 Xrotation Yrotation Zrotation
									JOINT RightHandThumb2
									{
										OFFSET -3.818176 -2.204422 2.204423
										CHANNELS 3 Xrotation Yrotation Zrotation
										JOINT RightHandThumb3
										{
											OFFSET -3.252098 -1.877594 1.877601
											CHANNELS 3 Xrotation Yrotation Zrotation
											JOINT RightHandThumb4
											{
												OFFSET -5.251778 -3.032120 3.032117
												CHANNELS 3 Xrotation Yrotation Zrotation
												End Site
												{
													OFFSET -0.000023 6.780014 0.000000
												}
											}
										}
									}
								}
								JOINT RightHandIndex1
								{
									OFFSET -16.029404 0.000000 0.000000
									CHANNELS 3 Xrotation Yrotation Zrotation
									JOINT RightHandIndex2
									{
										OFFSET -5.213303 0.000000 0.000000
										CHANNELS 3 Xrotation Yrotation Zrotation
										JOINT RightHandIndex3
										{
											OFFSET -6.386528 0.000000 0.000000
											CHANNELS 3 Xrotation Yrotation Zrotation
											JOINT RightHandIndex4
											{
												OFFSET -5.189026 0.000000 0.000000
												CHANNELS 3 Xrotation Yrotation Zrotation
												End Site
												{
													OFFSET 0.236702 5.183624 0.001972
												}
											}
										}
									}
								}
							}
						}
					}
				}
			}
		}
	}
	JOINT LeftUpLeg
	{
		OFFSET 14.073000 -7.904099 -1.463000
		CHANNELS 3 Xrotation Yrotation Zrotation
		JOINT LeftLeg
		{
			OFFSET -0.109806 -34.073280 4.093200
			CHANNELS 3 Xrotation Yrotation Zrotation
			JOINT LeftFoot
			{
				OFFSET 0.109806 -29.899420 -6.319000
				CHANNELS 3 Xrotation Yrotation Zrotation
				JOINT LeftToeBase
				{
					OFFSET 1.551100 -14.988700 20.535801
					CHANNELS 3 Xrotation Yrotation Zrotation
					JOINT LeftToe_End
					{
						OFFSET 0.221200 0.570800 13.248301
						CHANNELS 3 Xrotation Yrotation Zrotation
						End Site
						{
							OFFSET 0.000000 13.262435 0.000000
						}
					}
				}
			}
		}
	}
	JOINT RightUpLeg
	{
		OFFSET -13.839300 -7.904099 -1.463000
		CHANNELS 3 Xrotation Yrotation Zrotation
		JOINT RightLeg
		{
			OFFSET 0.109694 -34.073219 4.093300
			CHANNELS 3 Xrotation Yrotation Zrotation
			JOINT RightFoot
			{
				OFFSET -0.109694 -29.899384 -6.319200
				CHANNELS 3 Xrotation Yrotation Zrotation
				JOINT RightToeBase
				{
					OFFSET -1.551100 -14.988700 20.535801
					CHANNELS 3 Xrotation Yrotation Zrotation
					JOINT RightToe_End
					{
						OFFSET -0.221200 0.570900 13.248299
						CHANNELS 3 Xrotation Yrotation Zrotation
						End Site
						{
							OFFSET 0.000000 13.262440 0.000000
						}
					}
				}
			}
		}
	}
}
MOTION
Frames: 9
Frame Time: 0.033333
0.226462 77.598839 -7.813679 10.866575 -0.151982 1.505301 39.460513 -0.212204 7.490102 4.111099 0.164793 -4.720828 4.106206 -0.253496 -4.705950 4.530689 -2.632946 4.285450 21.284224 -7.345899 9.697015 -0.000000 0.000001 -0.000001 4.499648 -17.451924 -1.515507 -19.520612 -8.709112 -24.562743 0.000048 -103.237544 0.000024 49.264406 -2.921842 71.611965 -0.291978 4.287854 3.992492 2.875543 5.599704 -54.334998 1.999300 4.855410 -44.740382 -0.000001 0.000001 -0.000001 9.111009 3.574756 -5.703707 3.211479 17.517803 0.389827 -3.046185 -2.725867 3.216140 -0.000001 -0.000000 -0.000001 0.295480 -0.114197 11.096098 -22.884149 13.807911 41.197160 0.000052 107.550816 -0.000055 58.401690 16.954768 -48.011001 18.437944 -20.594839 10.045041 6.364054 -8.039851 -0.205901 -3.347041 3.375284 -3.194414 0.000000 0.000000 -0.000001 3.022792 -6.961453 30.772973 2.051259 -4.935259 45.117911 0.362928 -2.221138 18.557689 0.000001 -0.000002 -0.000002 -46.877798 13.485691 2.016389 47.331165 -5.570344 3.254488 -11.902013 11.203012 2.804369 -0.000029 -0.000012 -0.000002 -0.000000 0.000002 0.000000 -50.909413 -17.747881 -10.972179 49.131637 6.269232 -5.370565 -11.258903 -0.417351 -0.029506 -0.220529 -0.000003 0.000001 -0.000000 -0.000000 -0.000000 
0.239965 77.470459 -7.774582 11.097696 -0.170586 1.465451 39.644464 0.148969 7.654894 4.387925 0.223641 -4.989342 4.387426 -0.225863 -4.971493 3.876616 -2.883753 4.946730 21.058849 -7.482174 9.632621 -0.000000 -0.000000 0.000000 4.451739 -17.186954 -1.460980 -19.939163 -8.904563 -26.160499 0.000033 -103.998783 0.000052 50.654998 -3.023334 71.311184 -0.362752 4.146951 4.971128 2.884634 5.606199 -54.428224 1.988930 4.844972 -44.617883 -0.000002 0.000001 0.000004 9.603706 3.593194 -5.072809 2.842379 17.328060 0.411972 -2.931232 -2.577324 3.126582 0.000001 0.000001 0.000000 -0.148395 -2.341883 11.221145 -22.132729 14.676234 43.216540 0.000004 107.459742 -0.000010 59.028291 17.865565 -49.179374 18.912830 -20.663356 10.497371 6.323815 -8.002689 -0.193645 -3.414321 3.499105 -3.203329 -0.000000 -0.000000 0.000001 3.002300 -6.949071 30.610084 2.055158 -4.939155 45.163250 0.362585 -2.220083 18.548589 0.000001 0.000001 -0.000001 -47.323737 13.458796 2.057998 47.749224 -5.553419 3.310502 -12.115734 11.240997 2.808319 -0.000004 -0.000000 0.000004 -0.000000 -0.000000 0.000000 -51.265716 -17.505324 -11.042258 49.448616 6.195741 -5.087944 -11.417144 -0.455726 -0.111655 -0.218507 -0.000005 0.000001 -0.000000 -0.000000 0.000000 
0.252854 77.329872 -7.742491 11.327941 -0.128565 1.402451 39.856599 0.461514 7.740302 4.581522 0.265212 -5.066032 4.584644 -0.198932 -5.046105 3.393986 -3.041125 5.302602 20.920268 -7.647940 9.657206 -0.000000 -0.000001 -0.000000 4.411888 -17.002200 -1.571589 -20.125685 -8.868973 -27.779365 0.000122 -104.783790 0.000107 51.989552 -3.054919 71.189784 -0.426173 4.017554 5.878308 2.889802 5.609867 -54.481089 1.961956 4.817593 -44.297598 -0.000001 0.000001 -0.000001 9.779933 3.484304 -4.562297 2.719527 17.274788 0.423658 -2.763371 -2.344870 3.011842 -0.000001 0.000001 -0.000001 -0.486409 -4.065016 11.360260 -21.403641 15.281795 44.568849 0.000001 107.597090 0.000004 59.432638 18.644755 -50.095790 19.345835 -20.732617 10.910404 6.285071 -7.967452 -0.182078 -3.492892 3.643191 -3.214585 0.000001 0.000001 -0.000004 3.028865 -6.969274 30.789649 2.024676 -4.908766 44.808001 0.341136 -2.155197 17.987257 -0.000003 0.000000 -0.000000 -47.804361 13.403893 2.064417 48.204241 -5.621036 3.389259 -12.325808 11.365070 2.838516 -0.000010 -0.000005 -0.000002 -0.000000 0.000002 -0.000000 -51.639703 -17.330377 -11.116613 49.795054 6.041573 -4.879408 -11.602180 -0.438423 -0.139824 -0.216485 0.000001 0.000001 -0.000000 -0.000000 -0.000000 
0.261644 77.176018 -7.707882 11.600077 -0.052908 1.341221 40.094655 0.682148 7.757068 4.639912 0.286165 -4.964648 4.645030 -0.174246 -4.944491 3.174528 -3.091432 5.300382 20.798577 -7.845136 9.793652 0.000000 -0.000000 -0.000001 4.374841 -16.899952 -1.914374 -19.867434 -8.543995 -29.241286 -0.000058 -105.612606 -0.000075 53.076331 -3.090269 71.274151 -0.478073 3.920991 6.628454 2.882664 5.604797 -54.408160 1.922832 4.777299 -43.829723 0.000000 -0.000003 -0.000002 8.966021 2.655001 -4.844120 3.790581 17.837565 0.587088 -2.297502 -1.470145 2.961397 0.000001 -0.000000 0.000002 -0.623500 -4.765253 11.419926 -20.418880 15.036136 45.168885 0.000006 108.264181 0.000001 59.621841 19.201738 -50.740239 19.745577 -20.793854 11.302688 6.249777 -7.935720 -0.171552 -3.555207 3.758359 -3.222564 0.000000 0.000000 -0.000003 3.123298 -7.037017 31.444637 1.943412 -4.825849 43.850323 0.292472 -1.999215 16.644491 0.000000 0.000001 -0.000001 -48.341460 13.323228 2.031312 48.683840 -5.773482 3.473857 -12.539205 11.597265 2.893981 -0.000032 0.000002 0.000000 0.000000 0.000000 0.000000 -52.091015 -17.225713 -11.205444 50.185027 5.868515 -4.748058 -11.812387 -0.381769 -0.141487 -0.214472 0.000004 -0.000001 0.000000 -0.000001 -0.000000 
0.266184 77.015244 -7.665564 11.945216 0.011064 1.295091 40.369843 0.787915 7.733629 4.529199 0.287420 -4.731788 4.534345 -0.154143 -4.713679 3.228530 -3.031773 4.984383 20.625416 -8.001967 9.955677 -0.000000 -0.000000 0.000001 4.330652 -16.815956 -2.480990 -19.059209 -7.966975 -30.438649 0.000000 -106.456571 -0.000018 53.862247 -3.165007 71.534934 -0.515497 3.872413 7.148932 2.859821 5.588430 -54.173898 1.886320 4.739099 -43.389514 -0.000002 0.000002 -0.000004 6.806794 0.802555 -6.300595 6.618276 19.316986 1.102582 -1.342010 0.519901 3.078031 0.000000 0.000000 -0.000001 -0.531059 -4.264124 11.354775 -19.054087 13.763839 45.143848 0.000051 109.427779 -0.000045 59.745372 19.527280 -51.284923 20.136381 -20.850483 11.698658 6.215654 -7.904191 -0.160825 -3.583594 3.813033 -3.223613 0.000001 -0.000000 0.000002 3.264185 -7.135666 32.399600 1.829140 -4.704464 42.474703 0.232146 -1.785138 14.817602 -0.000001 -0.000001 -0.000001 -48.945084 13.242918 1.981482 49.163531 -5.947141 3.562209 -12.755850 11.883972 2.951377 -0.000041 0.000007 -0.000002 -0.000000 0.000000 -0.000000 -52.632160 -17.114875 -11.306372 50.585873 5.680859 -4.616149 -12.020995 -0.280801 -0.143534 -0.212448 -0.000002 0.000002 0.000000 -0.000001 -0.000000 
0.269380 76.852982 -7.618952 12.358950 0.038365 1.264638 40.705178 0.788150 7.697075 4.254792 0.272899 -4.417295 4.258338 -0.140634 -4.403076 3.494927 -2.870661 4.462394 20.423053 -8.020591 9.994387 -0.000000 -0.000000 0.000000 4.272417 -16.669702 -3.192344 -17.765877 -7.236014 -31.385341 -0.000060 -107.252049 -0.000051 54.487069 -3.261978 71.958468 -0.538249 3.870551 7.426515 2.823949 5.562503 -53.804535 1.861393 4.712674 -43.087183 -0.000001 -0.000000 -0.000002 3.716908 -1.536252 -8.597837 10.551631 21.438133 1.925222 0.021921 3.522783 3.380603 -0.000001 0.000001 -0.000002 -0.252877 -2.824301 11.215156 -17.465951 11.782395 44.747086 0.000090 110.791454 -0.000074 59.949574 19.686079 -51.906692 20.545257 -20.907685 12.114061 6.175212 -7.864938 -0.147416 -3.571002 3.794879 -3.215947 -0.000000 -0.000000 0.000002 3.400977 -7.229781 33.293883 1.722041 -4.585111 41.152354 0.182883 -1.587344 13.143384 -0.000000 -0.000001 -0.000000 -49.605711 13.165577 1.952638 49.625320 -6.065953 3.621102 -12.971703 12.143162 2.999994 -0.000008 -0.000003 -0.000001 0.000000 0.000002 0.000000 -53.268823 -17.071588 -11.412505 50.980368 5.561467 -4.523493 -12.205109 -0.148698 -0.172201 -0.210432 -0.000004 0.000001 0.000000 0.000000 -0.000000 
0.276518 76.690216 -7.576416 12.798718 0.030836 1.241415 41.130255 0.713597 7.650976 3.858432 0.246099 -4.045061 3.859494 -0.134409 -4.035426 3.885689 -2.630098 3.830072 20.301807 -7.871149 9.823145 0.000001 -0.000000 0.000000 4.199462 -16.422351 -3.958436 -16.175411 -6.447501 -32.179453 0.000052 -107.941270 0.000061 55.152968 -3.356232 72.566471 -0.549551 3.898857 7.521050 2.780226 5.530382 -53.352339 1.841382 4.691267 -42.842925 -0.000001 -0.000000 -0.000001 0.808577 -3.397712 -10.877348 14.093995 23.419503 2.700049 1.430692 6.773357 3.771863 0.000001 -0.000001 0.000006 0.119476 -0.947494 11.094689 -15.930281 9.636965 44.163327 0.000080 112.058788 -0.000083 60.241374 19.750605 -52.620174 20.973390 -20.960385 12.544137 6.124498 -7.815814 -0.131255 -3.523119 3.714606 -3.200193 0.000000 0.000000 -0.000001 3.488954 -7.291165 33.839260 1.654116 -4.506472 40.295309 0.155690 -1.466047 12.122683 0.000001 -0.000002 0.000003 -50.292332 13.084700 1.975385 50.071878 -6.100285 3.611169 -13.186895 12.317045 3.052633 0.000001 0.000005 -0.000001 -0.000000 0.000002 0.000000 -53.999909 -17.300801 -11.514163 51.383308 5.659070 -4.629941 -12.360067 -0.027383 -0.245757 -0.208410 -0.000003 -0.000001 0.000000 0.000001 0.000000 
0.292968 76.526070 -7.541887 13.207223 0.002163 1.211750 41.665575 0.597596 7.574038 3.396412 0.208621 -3.614835 3.394752 -0.134568 -3.609239 4.322878 -2.343425 3.128044 20.361907 -7.634779 9.516926 -0.000000 -0.000000 0.000001 4.115362 -16.093230 -4.734377 -14.493824 -5.665656 -32.924678 0.000021 -108.501926 -0.000005 55.927932 -3.456588 73.346458 -0.553995 3.938059 7.517360 2.732026 5.494363 -52.850546 1.808135 4.655291 -42.434828 0.000000 0.000002 0.000003 -0.913334 -4.278933 -12.446981 16.148500 24.572234 3.079942 2.488904 9.327436 4.110430 0.000001 0.000001 0.000001 0.493807 0.927750 11.044473 -14.603851 7.732636 43.443244 0.000033 113.126395 -0.000041 60.498114 19.756319 -53.306601 21.384909 -20.994523 12.973716 6.076258 -7.772491 -0.118388 -3.461395 3.610273 -3.180892 0.000000 0.000000 -0.000000 3.516962 -7.314172 33.981724 1.628965 -4.476719 39.974112 0.147285 -1.426360 11.789671 -0.000000 -0.000000 -0.000001 -50.960718 12.993299 2.055441 50.522964 -6.049300 3.530991 -13.409535 12.380902 3.114947 0.000010 -0.000003 0.000003 -0.000000 0.000002 -0.000000 -54.776512 -17.865171 -11.604271 51.812954 6.010689 -4.994688 -12.498721 0.048100 -0.359046 -0.206395 -0.000012 0.000002 -0.000000 -0.000000 -0.000000 
0.319827 76.359627 -7.512045 13.557935 -0.033289 1.171970 42.296059 0.466739 7.448535 2.922123 0.162764 -3.140649 2.918215 -0.139212 -3.137797 4.750105 -2.049433 2.376082 20.603091 -7.445651 9.276277 -0.000000 -0.000000 -0.000000 4.025482 -15.730540 -5.514337 -12.870925 -4.936446 -33.672177 0.000007 -108.948184 0.000021 56.677005 -3.592378 74.180041 -0.554003 3.979381 7.458727 2.680006 5.454739 -52.305223 1.746832 4.587518 -41.673918 -0.000000 -0.000001 -0.000003 -1.346695 -4.349637 -13.261275 16.717552 24.846768 3.050072 3.029626 10.696806 4.311053 -0.000000 0.000000 -0.000002 0.819626 2.583326 11.046853 -13.443212 6.159791 42.608277 0.000003 114.075982 0.000003 60.592357 19.719369 -53.871328 21.738069 -21.006824 13.396244 6.057547 -7.761535 -0.117726 -3.418737 3.538887 -3.166363 0.000002 0.000000 -0.000000 3.503421 -7.311283 33.848065 1.626841 -4.474184 39.946857 0.147649 -1.428161 11.804754 0.000001 -0.000001 0.000001 -51.584054 12.896614 2.167186 50.991044 -5.934488 3.420374 -13.644075 12.349820 3.177162 0.000018 -0.000010 0.000002 -0.000000 -0.000000 0.000000 -55.521433 -18.542089 -11.689145 52.265058 6.450808 -5.456059 -12.639145 0.087636 -0.479441 -0.204391 -0.000001 0.000003 0.000000 0.000000 -0.000000 
